<svg width="25" height="25" viewBox="0 0 25 25" fill="none" xmlns="http://www.w3.org/2000/svg">
<circle cx="12.5" cy="12.5" r="12.5" fill="#0066FF"/>
<path fill-rule="evenodd" clip-rule="evenodd" d="M20.7836 6.26522C20.854 6.34716 20.9094 6.44386 20.9465 6.5498C20.9836 6.65573 21.0017 6.76882 20.9999 6.88262C20.998 6.99641 20.9762 7.10868 20.9356 7.21302C20.8951 7.31735 20.8366 7.4117 20.7635 7.49068L10.3317 18.7573C10.1877 18.913 9.99548 19 9.79546 19C9.59543 19 9.4032 18.913 9.25919 18.7573L4.23647 13.3329C4.16341 13.2539 4.10493 13.1595 4.06438 13.0552C4.02383 12.9509 4.002 12.8386 4.00013 12.7248C3.99636 12.495 4.07415 12.2729 4.21638 12.1074C4.35861 11.9419 4.55362 11.8466 4.75853 11.8423C4.96344 11.8381 5.16145 11.9253 5.30901 12.0849L9.79546 16.9295L19.691 6.24269C19.764 6.1637 19.8503 6.10163 19.9447 6.06001C20.0392 6.0184 20.14 5.99805 20.2415 6.00015C20.3429 6.00224 20.443 6.02672 20.536 6.07221C20.6291 6.11769 20.7132 6.18327 20.7836 6.26522Z" fill="white"/>
</svg>
